<mxfile host="app.diagrams.net" agent="Mozilla/5.0 (Windows NT 10.0; Win64; x64) AppleWebKit/537.36 (KHTML, like Gecko) Chrome/135.0.0.0 Safari/537.36" version="26.2.14">
  <diagram name="페이지-1" id="keNMEnJRhXia_U0SgdWf">
    <mxGraphModel dx="1359" dy="784" grid="0" gridSize="10" guides="1" tooltips="1" connect="1" arrows="1" fold="1" page="1" pageScale="1" pageWidth="827" pageHeight="1169" math="0" shadow="0">
      <root>
        <mxCell id="0" />
        <mxCell id="1" parent="0" />
        <mxCell id="OMXQNMZ289fJbjHy3HJ1-1" value="" style="strokeColor=#666666;html=1;verticalLabelPosition=bottom;labelBackgroundColor=#ffffff;verticalAlign=top;outlineConnect=0;shadow=0;dashed=0;shape=mxgraph.rackGeneral.rackCabinet3;fillColor2=#f4f4f4;container=1;collapsible=0;childLayout=rack;allowGaps=1;marginLeft=9;marginRight=9;marginTop=21;marginBottom=22;textColor=#666666;numDisp=off;" vertex="1" parent="1">
          <mxGeometry x="40" y="480" width="180" height="450" as="geometry" />
        </mxCell>
        <mxCell id="OMXQNMZ289fJbjHy3HJ1-16" value="" style="rounded=0;whiteSpace=wrap;html=1;" vertex="1" parent="OMXQNMZ289fJbjHy3HJ1-1">
          <mxGeometry x="9" y="46" width="162" height="27" as="geometry" />
        </mxCell>
        <mxCell id="OMXQNMZ289fJbjHy3HJ1-9" value="" style="rounded=0;whiteSpace=wrap;html=1;" vertex="1" parent="OMXQNMZ289fJbjHy3HJ1-1">
          <mxGeometry x="9" y="240" width="162" height="60" as="geometry" />
        </mxCell>
        <mxCell id="OMXQNMZ289fJbjHy3HJ1-10" value="" style="rounded=0;whiteSpace=wrap;html=1;" vertex="1" parent="OMXQNMZ289fJbjHy3HJ1-1">
          <mxGeometry x="9" y="300" width="162" height="60" as="geometry" />
        </mxCell>
        <mxCell id="OMXQNMZ289fJbjHy3HJ1-11" value="" style="rounded=0;whiteSpace=wrap;html=1;" vertex="1" parent="OMXQNMZ289fJbjHy3HJ1-1">
          <mxGeometry x="9" y="360" width="162" height="60" as="geometry" />
        </mxCell>
        <mxCell id="OMXQNMZ289fJbjHy3HJ1-3" value="" style="strokeColor=#666666;html=1;verticalLabelPosition=bottom;labelBackgroundColor=#ffffff;verticalAlign=top;outlineConnect=0;shadow=0;dashed=0;shape=mxgraph.rackGeneral.rackCabinet3;fillColor2=#f4f4f4;container=1;collapsible=0;childLayout=rack;allowGaps=1;marginLeft=9;marginRight=9;marginTop=21;marginBottom=22;textColor=#666666;numDisp=off;" vertex="1" parent="1">
          <mxGeometry x="280" y="480" width="180" height="450" as="geometry" />
        </mxCell>
        <mxCell id="OMXQNMZ289fJbjHy3HJ1-17" value="" style="rounded=0;whiteSpace=wrap;html=1;" vertex="1" parent="OMXQNMZ289fJbjHy3HJ1-3">
          <mxGeometry x="9" y="45" width="162" height="27" as="geometry" />
        </mxCell>
        <mxCell id="OMXQNMZ289fJbjHy3HJ1-12" value="" style="rounded=0;whiteSpace=wrap;html=1;" vertex="1" parent="OMXQNMZ289fJbjHy3HJ1-3">
          <mxGeometry x="9" y="257" width="162" height="163" as="geometry" />
        </mxCell>
        <mxCell id="OMXQNMZ289fJbjHy3HJ1-4" value="" style="strokeColor=#666666;html=1;verticalLabelPosition=bottom;labelBackgroundColor=#ffffff;verticalAlign=top;outlineConnect=0;shadow=0;dashed=0;shape=mxgraph.rackGeneral.rackCabinet3;fillColor2=#f4f4f4;container=1;collapsible=0;childLayout=rack;allowGaps=1;marginLeft=9;marginRight=9;marginTop=21;marginBottom=22;textColor=#666666;numDisp=off;" vertex="1" parent="1">
          <mxGeometry x="520" y="480" width="180" height="450" as="geometry" />
        </mxCell>
        <mxCell id="OMXQNMZ289fJbjHy3HJ1-19" value="" style="rounded=0;whiteSpace=wrap;html=1;" vertex="1" parent="OMXQNMZ289fJbjHy3HJ1-4">
          <mxGeometry x="9" y="45" width="162" height="27" as="geometry" />
        </mxCell>
        <mxCell id="OMXQNMZ289fJbjHy3HJ1-13" value="" style="rounded=0;whiteSpace=wrap;html=1;" vertex="1" parent="OMXQNMZ289fJbjHy3HJ1-4">
          <mxGeometry x="9" y="240" width="162" height="60" as="geometry" />
        </mxCell>
        <mxCell id="OMXQNMZ289fJbjHy3HJ1-14" value="" style="rounded=0;whiteSpace=wrap;html=1;" vertex="1" parent="OMXQNMZ289fJbjHy3HJ1-4">
          <mxGeometry x="9" y="300" width="162" height="60" as="geometry" />
        </mxCell>
        <mxCell id="OMXQNMZ289fJbjHy3HJ1-15" value="" style="rounded=0;whiteSpace=wrap;html=1;" vertex="1" parent="OMXQNMZ289fJbjHy3HJ1-4">
          <mxGeometry x="9" y="360" width="162" height="60" as="geometry" />
        </mxCell>
      </root>
    </mxGraphModel>
  </diagram>
</mxfile>
